<svg baseProfile="basic" id="Слой_1" xmlns="http://www.w3.org/2000/svg" viewBox="0 0 481.9 481.9"><style>.st0{opacity:0;fill:#fff}.st1{fill:url(#SVGID_1_)}.st2{opacity:.7;fill:#40c4ff}.st3{fill:#0687ef}</style><path class="st0" d="M0 0h481.9v481.9H0z"/><linearGradient id="SVGID_1_" gradientUnits="userSpaceOnUse" x1="140.707" y1="166.278" x2="280.2" y2="356.769"><stop offset="0" stop-color="#0687ef"/><stop offset="1" stop-color="#40c4ff"/></linearGradient><path class="st1" d="M211.1 104.3c-1.8-1.1-4-1.1-5.8 0L69.2 185.9c-1.7 1-2.8 2.9-2.8 4.9v135.3c0 2 1 3.8 2.8 4.9l136.1 81.6c1.8 1.1 4 1.1 5.8 0l138.8-83.3V190.8c0-2-1-3.8-2.8-4.9l-136-81.6z"/><path class="st2" d="M68.5 188.8l136.8 82.1c1.8 1.1 4 1.1 5.8 0l212.7-127.6c1.8-1.1 1.8-3.8 0-4.9L289.1 57.5c-1.8-1.1-4-1.1-5.8 0L68.5 186.3c-.9.6-.9 1.9 0 2.5z"/><path class="st3" d="M349.9 261.3v68l52.6-31.6c1.8-1.1 1.8-3.8 0-4.9l-52.6-31.5z"/></svg>